Patient4_TMGait_0pt7_02_right_50_EMG.mot
version=1
nRows=30
nColumns=33
inDegrees=no
endheader
time	1LAddLong	2LGlutMax	3LGlutMed	4LIliopsoas	5LSemiMemb	6LBicFemLong	7LRecFem	8LVastMed	9LVastLat	10LGasMed	11LTibAnt	12lTibPost	13LPeroneusLong	14LSol	15LExtDigLong	16LFlexDigLong	17RAddLong	18RGlutMax	19RGlutMed	20RIliopsoas	21RSemiMemb	22RBicFemLong	23RRecFem	24RVastMed	25RVastLat	26RGasMed	27RTibAnt	28RTibPost	29RPeroneusLong	30RSol	31RExtDigLong	32RFlexDigLong
57.08	-0.002747	-0.19348	0.24826	0.084076	0.035553	0.063019	0.28854	0.01297	0.15564	-0.015106	0.2385	-0.014496	-0.14435	0.12085	0.13443	0.009766	-0.004883	-2.567	-0.97397	0.045624	0.51163	-0.0177	0.35843	0.19318	-0.65842	0.28153	0.036621	0.27084	0.33234	-0.69839	-0.002899	-0.039368
57.081	-0.007629	-0.22293	0.25269	0.089874	0.02533	0.05722	0.2919	0.021667	0.14801	-0.039368	0.345	-0.010529	-0.1149	0.13184	0.04303	0.011749	0.008698	-2.5381	-1.1241	0.033417	0.35721	-0.024109	0.30868	0.121	-0.51773	0.30868	0.20462	0.23682	0.44495	-0.89157	-0.00061	-0.032196
57.082	-0.010986	-0.21225	0.28305	0.03006	0.018921	0.04715	0.27527	0.016174	0.13519	-0.038147	0.07782	-0.018768	-0.11459	0.11597	1.1191	0.012054	-0.005188	-2.4692	-1.4931	0.017548	0.2092	-0.14572	0.24933	0.09613	-0.30914	0.26627	0.42236	0.017395	0.43533	0.027924	-0.004883	-0.024109
57.083	-0.007629	-0.22171	0.31235	-0.041199	0.014038	0.039673	0.27283	0.014496	0.13062	-0.083618	-0.47104	-0.005646	-0.089722	0.1944	-0.14496	0.021667	-0.00061	-2.4667	-2.3358	0.039368	-0.02121	-0.16754	0.37643	0.15442	-0.16007	0.2327	0.60349	0.03418	-0.004425	0.72922	-0.001221	-0.022125
57.084	-0.000153	-0.16556	0.3035	-0.065155	0.008087	0.033569	0.27985	0.016479	0.14481	-0.10132	0.016785	-0.008392	-0.11841	0.23148	0.20294	0.025177	0.036774	-2.3891	-2.7542	0.012054	-0.031586	-0.24933	0.58884	0.17059	-0.075989	0.22675	0.48401	-0.009918	0.22201	0.58945	-0.000458	-0.018158
57.085	0.003967	-0.23315	0.23499	-0.046692	0.009003	0.013275	0.25253	0.015564	0.13504	-0.074158	0.069275	-0.016022	-0.15274	0.2803	-0.48859	0.01709	-0.000458	-2.2849	-2.2211	-0.006561	0.17319	-0.16266	0.55649	0.14023	-0.023041	0.19943	0.083466	-0.036621	0.023956	-0.10361	-0.004883	-0.028687
57.086	-0.003357	-0.33249	0.19562	-0.069122	0.013275	0.02182	0.26627	0.011597	0.13702	-0.095062	0.043793	-0.01236	-0.15213	0.32028	-0.22522	0.004425	-0.0177	-2.2751	-0.64575	-0.053101	0.42984	0.001678	0.48569	0.068512	0.00061	0.12054	-0.23468	-0.037689	-0.036163	-0.44205	-0.005493	-0.033569
57.087	0.000916	-0.34164	0.18341	-0.099487	0.011292	0.021362	0.29434	0.01236	0.12329	-0.078278	0.036316	-0.012817	-0.16144	0.079041	0.41565	0.002747	-0.017853	-2.2668	-0.57953	-0.066681	0.36621	-0.21378	0.45364	0.095825	0.000153	-0.029755	-0.96222	-0.022125	0.007782	-0.091705	-0.006104	-0.029144
57.088	-0.003815	-0.37415	0.19043	-0.093994	0.009155	0.017548	0.35996	0.010529	0.1384	-0.046997	0.099792	-0.014648	-0.17456	-0.16998	-0.34439	0.007782	-0.0354	-2.2414	-0.71701	-0.10635	0.2739	-0.22553	0.53329	0.17303	0.014191	-0.095062	-1.0031	-0.003052	0.1561	0.14069	-0.005188	-0.031281
57.089	-0.010529	-0.41687	0.18646	-0.077209	0.020447	-0.034027	0.35492	0.013885	0.13702	-0.020447	0.36621	-0.004425	-0.20752	-0.15488	-0.53131	0.003357	-0.05188	-2.1642	-0.46448	-0.11826	-0.1622	-0.28564	0.52978	0.33493	-0.010223	-0.14206	-0.68695	-0.05127	0.26245	0.11261	-0.001373	-0.029907
57.09	-0.028534	-0.45853	0.2005	-0.040131	0.022888	-0.022278	0.35736	0.015869	0.12054	-0.024109	0.60288	-0.009308	-0.2356	-0.10468	-0.35507	0.001221	-0.076447	-2.2134	-0.89676	-0.10773	-0.14404	-0.025635	0.48294	0.21866	-0.011444	-0.23956	-0.002441	-0.084381	0.23682	-0.25223	-0.006256	-0.024719
57.091	-0.046692	-0.50522	0.19211	0.000305	0.024261	0.000305	0.33844	0.014801	0.10529	-0.073395	0.34698	0.010681	-0.075378	-0.00473	0.034943	0.020752	-0.075684	-2.3099	-1.4983	-0.003815	0.033569	0.17868	0.522	0.072937	0.009613	-0.18082	0.22873	-0.11704	-0.15442	-0.5275	-0.007019	-0.02121
57.092	-0.03067	-0.51575	0.18631	0.068512	0.017242	-0.01236	0.30395	0.016479	0.1004	-0.12985	-0.62256	0.019531	0.050812	0.078888	0.62897	0.031891	-0.051575	-2.222	-1.3295	0.07019	0.046082	0.02121	0.54382	0.047607	-0.060425	0.045166	-0.000305	0.029602	0.066986	-0.53467	-0.001526	-0.014343
57.093	-0.016479	-0.50034	0.15961	0.10071	0.007935	0.016937	0.31311	0.011292	0.076599	-0.12833	-0.43594	0.008698	-0.050049	0.092773	0.14069	0.016022	0.016937	-2.4158	-1.4369	0.14481	0.075684	-0.10834	0.58182	0.13443	-0.11353	-0.070038	-0.1471	0.10971	0.064392	-0.047455	-0.002136	-0.027466
57.094	-0.002899	-0.46463	0.1619	0.092773	0.007172	0.010986	0.30441	0.015106	0.050049	-0.047913	-0.29587	0.005951	-0.2092	0.10895	0.24292	0.009613	0.033875	-2.4144	-1.9913	0.091858	0.003204	-0.011902	0.61783	0.14648	-0.15991	-0.026855	-0.08255	0.11734	0.13672	0.38589	-0.008087	-0.02594
57.095	0.002441	-0.3595	0.15457	0.074463	0.002899	-0.000916	0.28549	0.013123	0.029297	-0.018158	0.26321	0.012817	-0.3183	0.10284	0.12726	0.00885	0.024719	-2.2902	-2.659	0.066528	0.064545	0.071106	0.53375	0.13214	-0.16083	0.24689	-0.079651	-0.1944	0.33554	0.61508	-0.004272	-0.020294
57.096	0.005951	-0.34012	0.18036	0.03006	0.009308	0.019226	0.2681	0.007935	0.001984	-0.10407	0.1088	0.010071	-0.088043	0.13733	-0.26733	0.004883	-0.061493	-2.1433	-2.2562	0.040283	-0.22964	0.22705	0.40085	0.13947	-0.13153	0.24185	0.052185	-0.13382	0.38208	0.41779	-0.005798	-0.014038
57.097	0.007172	-0.31357	0.18524	0.023651	-0.011444	0.011597	0.30395	0.010834	-0.010529	-0.15961	-0.32349	0.016022	0.14923	0.088348	-0.37537	0.005798	-0.056	-1.9159	-1.0823	-0.008392	-0.27802	0.19501	0.45548	0.099335	-0.16266	0.05249	0.17761	0.016785	0.20035	-0.071716	-0.000305	-0.010376
57.098	-0.002747	-0.19486	0.15732	0.036926	-0.002747	-0.009003	0.34698	0.008392	-0.016174	-0.16098	-0.3598	0.00351	0.14557	-0.006256	-0.55328	-0.007172	-0.013885	-1.8246	-0.52704	-0.034637	0.055695	-0.007477	0.62439	0.09903	-0.1619	0.15778	0.25421	-0.023956	-0.077362	-0.466	-0.011444	-0.018768
57.099	-0.001678	-0.068512	0.11353	-0.002899	0.041046	-0.072937	0.41443	0.009918	-0.036316	-0.069122	-0.12116	0.005188	0.028229	-0.11032	-0.2446	-0.016022	-0.000153	-1.5268	-0.74631	-0.066376	0.15106	-0.20477	0.62149	0.034332	-0.18616	0.14069	0.30487	-0.03479	-0.33035	-0.41122	-0.006714	-0.018005
57.1	-0.003662	0.039825	0.1297	-0.067596	0.040894	-0.090485	0.39963	0.008698	-0.047302	-0.018921	-0.061646	0.015411	0.000916	-0.1062	0.072937	-0.013733	-0.027008	-1.2646	-1.0498	-0.09201	-0.011444	-0.19119	0.30472	-0.065308	-0.21866	0.09903	-0.093842	-0.014648	-0.46204	0.33981	-0.006409	-0.012207
57.101	-0.006256	0.20096	0.12543	-0.097351	0.05127	-0.080109	0.4007	0.005188	-0.045929	0.007019	-0.075531	0.009003	-0.012207	-0.13763	0.56564	-0.012512	-0.036621	-1.0599	-1.1296	-0.066986	-0.046387	-0.22568	0.002899	-0.031891	-0.21042	0.054016	-0.70953	0.011292	-0.23941	0.33966	0.000305	-0.010834
57.102	-0.004425	0.31921	0.12924	-0.087585	0.040283	-0.08255	0.42267	0.004578	-0.050354	-0.039978	-0.023041	0.002747	-0.016479	-0.021362	0.59769	-0.010376	-0.0177	-0.79025	-0.95245	-0.048065	-0.076447	-0.51895	-0.22293	0.011444	-0.12985	0.017548	-0.80658	0.11993	-0.028076	-0.17364	-0.005188	-0.010681
57.103	-0.001373	0.47867	0.10712	-0.052185	0.040131	-0.074158	0.41473	0.001221	-0.057068	-0.049438	0.12421	0.002747	-0.1091	0.11276	0.29892	-0.001678	-0.015717	-0.54596	-0.73776	-0.062714	-0.1442	-0.80231	-0.40497	0.057373	-0.037537	0.027008	-0.76324	0.061951	0.13229	-0.64621	-0.001984	-0.003357
57.104	0.000763	0.58929	0.10834	-0.014648	0.034637	-0.066833	0.39139	-0.002441	-0.055847	-0.001831	0.067444	0	-0.20645	0.12238	0.31296	-0.018158	-0.006714	-0.40817	-0.73166	-0.057831	-0.13168	-0.88074	-0.083771	0.002747	-0.024414	0.006561	-0.50964	0.004883	0.29709	-0.64926	-0.001373	0.001373
57.105	0.006409	0.63278	0.1149	0.017548	0.029449	-0.079193	0.30884	-0.002899	-0.072327	-0.006256	-0.045929	0.000153	-0.18341	0.13962	0.02533	-0.013275	0.000916	-0.095367	-0.55573	-0.009155	-0.020599	-0.94254	0.053711	0.063324	0.055542	-0.036316	0.48737	-0.019836	0.27557	-0.59464	-0.00351	0.003357
57.106	0.016479	0.7283	0.10971	0.03479	0.029602	-0.066528	0.2124	0.000458	-0.079498	-0.013275	-0.051422	0.006714	-0.12329	0.054474	-0.28107	-0.002441	-0.016785	0.2887	-0.52689	0.078583	0.15228	-0.94238	-0.046844	0.079956	0.16983	-0.053711	0.61768	-0.014801	-0.096283	-0.25391	-0.001526	-0.007324
57.107	0.012665	0.76767	0.091858	-0.001678	0.032501	-0.07782	0.17502	0.005646	-0.091858	-0.028076	-0.04364	0.009003	-0.063324	0.10346	-0.69488	-0.002136	-0.010223	0.61233	-0.63446	0.17593	0.22156	-0.82932	-0.000153	0.070343	0.15259	-0.050354	0.6015	-0.015564	-0.12497	0.14771	-0.003967	-0.013885
57.108	0.007629	0.73578	0.086517	-0.032043	0.022888	-0.047302	0.19989	0.005188	-0.090942	-0.021362	-0.009613	0.002594	-0.049286	0.075073	-0.61615	-0.009003	0.000153	0.88821	-0.64743	0.098114	0.24674	-0.45929	0.049286	0.048065	-0.001068	-0.072937	0.46143	-0.014191	-0.12528	0.70175	-0.002594	-0.016174
57.109	0.011139	0.6749	0.097198	-0.019836	0.026398	-0.062408	0.16556	0.008545	-0.099487	0.020752	-0.013275	0.000916	-0.17441	0.056	0.84976	-0.00824	0.00824	1.1819	-0.51758	0.055695	0.12741	0.078735	-0.041962	0.1561	-0.026855	-0.083466	0.56534	-0.033417	-0.14786	1.0468	-0.002136	-0.020447
